<svg xmlns="http://www.w3.org/2000/svg" viewBox="0 0 64 64" fill="none" role="img" aria-label="Resumify">
  <defs>
    <linearGradient id="lbg" x1="0" y1="0" x2="64" y2="64" gradientUnits="userSpaceOnUse">
      <stop stop-color="#4F46E5"/>
      <stop offset="0.5" stop-color="#7C3AED"/>
      <stop offset="1" stop-color="#EC4899"/>
    </linearGradient>
    <linearGradient id="lshine" x1="0" y1="0" x2="64" y2="32" gradientUnits="userSpaceOnUse">
      <stop stop-color="#fff" stop-opacity="0.35"/>
      <stop offset="1" stop-color="#fff" stop-opacity="0"/>
    </linearGradient>
    <linearGradient id="lr" x1="18" y1="14" x2="46" y2="50" gradientUnits="userSpaceOnUse">
      <stop stop-color="#FFFFFF"/>
      <stop offset="1" stop-color="#E0E7FF"/>
    </linearGradient>
  </defs>
  <rect width="64" height="64" rx="18" fill="url(#lbg)"/>
  <rect width="64" height="64" rx="18" fill="url(#lshine)"/>
  <rect x="1.5" y="1.5" width="61" height="61" rx="16.5" stroke="#fff" stroke-opacity="0.25" stroke-width="1.5"/>
  <path d="M20 14H35C41.6274 14 47 19.3726 47 26C47 31.8906 42.7483 36.7869 37.1121 37.7618L46.5 50H37L29 38H28V50H20V14Z" fill="url(#lr)"/>
  <rect x="28" y="21" width="9" height="9" rx="2" fill="#6366F1"/>
  <circle cx="50" cy="14" r="7" fill="#10B981"/>
  <path d="M50 9.5L51.2 12.8L54.5 14L51.2 15.2L50 18.5L48.8 15.2L45.5 14L48.8 12.8L50 9.5Z" fill="#FFFFFF"/>
</svg>
